<?xml version="1.0" encoding="UTF-8"?>
<svg id="_圖層_1" data-name="圖層 1" xmlns="http://www.w3.org/2000/svg" viewBox="0 0 682.97 757.92">
  <defs>
    <style>
      .cls-1 {
        fill: #006fd8;
      }
    </style>
  </defs>
  <path class="cls-1" d="M304.77,2.42c-5.1,2.7-16.2,13.6-22.8,22.4-4.1,5.5-18,28.2-21.9,35.9-2.5,4.8-.8,4.6-17.1,1.7-16.6-3-31.1-3.8-43.6-2.6-13.4,1.4-27.5,3.7-34.8,5.7-2.8,.8-5.3,1.1-5.7,.7-.4-.5-3.3-5.3-6.4-10.8-17.1-30-28.9-43.1-43.5-48.1-7.2-2.5-21.7-2.5-32.6,0C54.47,12.42,26.77,27.12,12.97,41.02,1.47,52.62-2.23,63.82,1.27,76.02c5.3,17.7,25.8,39.5,45.1,47.7,5,2.2,16.9,5.3,23.4,6.2,3.5,.4,6.6,1.1,6.9,1.4s-.5,2.2-1.8,4.2c-10.5,17.1-20,46-24.5,74.9-1.6,10.5-1.8,41-.4,50.5,5.5,35.5,18.7,61.1,44.5,86.3,16,15.6,43.9,32.4,62,37.4,18.2,4.9,27,6.3,39.9,6.3s16.6-.7,23.2-4.2c5.3-2.9,6.4-9.1,2.3-12.5-.8-.6-5.2-1.4-9.9-1.8-15.2-1.2-39.2-6.6-51.3-11.4-9.8-3.9-30.4-15-33.9-18.3-.7-.7-4.4-3.8-8.3-6.8-3.8-3-7.2-5.8-7.3-6.3-.2-.4-2.4-3-4.8-5.6-14.7-16.2-24.7-35.7-29.5-57.6-2-9-1.7-47.3,.5-59.3,11.4-64.4,46.8-106.2,100.1-118.3,11-2.5,17.3-3.1,32-3.2,17.5,0,29,1.5,43.5,6,8.6,2.6,24,10.1,28.4,13.8,12,10,15,12.9,19.4,19,7.7,10.7,13.3,22.2,16.1,33,1.1,4.2,.7,7.5-3.6,31-2.6,14.2-2.4,42.8,.5,57.5,2.7,13.5,4.5,20.4,7.4,28,3.6,9.5,5.1,12.3,9.4,18.5,8.4,12,17,17.3,22.2,13.9,4.3-2.8,4.2-3.7-2.5-18.2-3.6-7.5-3.7-10.2-.6-10.2,2.2,0,16.4-4.5,21.3-6.7,5-2.3,8-5.3,8-8.1,0-2.5-5-8.2-7.2-8.2-2.3,.1-13.1,1.9-20.3,3.5-10.5,2.3-11.2,2.1-12.5-2.3-.5-2-1.3-6.1-1.6-9l-.7-5.2h10.9c11.9,0,22.4-1.4,25.5-3.3,4.1-2.5,3.6-9.4-1.1-12.8-3.4-2.5-9.3-3.7-24.7-5l-13.3-1.1,.1-9.7c0-9.9,.4-13.7,3.4-38.1l1.8-14.5-2.8-15.5c-5.2-29.4-6.5-38.6-7.6-55-1.3-18.4-.5-38.5,1.5-43.5,2.6-6.2,8.6-8.1,15.9-5,3,1.2,16.1,10.4,17.7,12.4,.3,.3,3.6,3.5,7.5,7.1,6.1,5.7,17.3,17.8,30.1,32.3,3.7,4.3,4.4,4.7,8.5,4.7,2.4,0,6.9-.9,9.9-2s5.8-2,6.2-2c.5,0,.8,9,.8,19.9v20l3.3,3.5c4.3,4.5,7.6,5.3,12.4,2.9,6.7-3.2,7.3-5.7,7.3-30.1v-21.2h10v21.6c0,13.5,.4,22.3,1.1,23.5,2,3.7,4.3,5.9,7.6,7,4.7,1.5,10.2-1.7,12.7-7.4,1.7-3.7,1.8-6.1,1.3-21.4-.3-9.5-.3-18.7,0-20.5q.5-3.4,5.1-2.8l4.7,.5,.5,22.2,.5,22.3,3.1,3c2.5,2.5,3.8,3.1,7.9,3.2,4.4,.1,5.2-.3,8.2-3.6l3.3-3.6v-19.6c0-18,.1-19.6,1.7-19,12.9,5,16.4,4.6,22.4-2.6,10.8-12.9,22.9-25.8,30.4-32.7,2.2-2,5.5-5.1,7.3-6.9,1.9-1.7,3.6-3.2,3.9-3.2,.2,0,3.2-2,6.7-4.4,6.3-4.4,10.6-5.9,16-5.8,7.3,.2,9.9,7.9,9.9,29.2,0,8.5-.5,19.1-1.2,23.5-3,20-5.3,33.7-7.1,41.6-1.1,4.8-2,10.1-2,11.9s2.5,8.7,5.5,15.5c5.3,11.7,9.9,26.1,12.5,38.8,.6,3.2,1,6,.8,6.3-.7,.6-19.8,3.4-23.5,3.4-4.4,0-13.6,2.5-16.8,4.6-5.4,3.5-5.7,9.7-.5,13.4,2.6,1.8,4.4,2,23,2h20.3l-.6,10.6c-.2,5.8-.7,10.8-1,11-.6,.7-13.7-1.1-27.6-3.7-11.4-2.2-15.8-1.6-18.6,2.4-1.8,2.6-1.9,7.6-.2,9.9,2.2,2.9,13.2,6.3,33,10.3,9.8,2,9.5,1.6,7.1,10.7-3.3,13-14,33.2-24,45.5l-3.5,4.2-6.1-3.9c-7.5-4.9-11-5.9-21.3-6.1-7.9-.2-12.6,.4-17.5,2.1-18.6,6.5-24.3,8.6-28.9,10.7-3,1.4-7.1,3.1-9.1,3.8-2.1,.7-6,2.5-8.6,3.9-2.7,1.4-5.3,2.6-5.8,2.6-.8,0-9.9,4-27.6,12.2-3.6,1.7-12.9,6.2-20.8,10.1l-14.3,7-10.7-3.5c-5.9-2-14.1-4.8-18.2-6.2s-13.8-4.5-21.5-7-17.8-5.7-22.5-7.2c-11.3-3.7-18.9-3.7-29.5,0-11.3,4-15.8,6.2-19,9.6-4.3,4.5-2.9,7.2,8,14.7,5,3.5,9.7,6.6,10.5,7,.8,.5,6.2,4,11.9,7.8,5.7,3.9,13.6,9.1,17.4,11.6l7,4.7-21.9,10.9c-12.1,6-25.5,12.8-29.9,15.2l-8,4.2-4.5-1.7c-3.8-1.4-11.2-4.7-21.5-9.4-10.6-4.8-15.8-5.1-24.2-1.5-12.7,5.7-12.6,8,.7,20.4,5.5,5.1,10,9.7,10,10.1,0,.5-1.9,1.3-4.2,1.8-2.4,.6-6.9,1.7-10,2.6-14,3.9-18,4.7-29.3,6.2-6.6,.9-15.1,2-19,2.5-12.3,1.7-59,2.3-68.5,.9-13.1-1.9-22.7-4.7-29.4-8.4-7.6-4.3-11.1-7.9-12.7-13.4-1.1-3.7-1-5.1,.5-9.7,2.8-8.8,13.3-21.5,25.9-31,5-3.8,5.7-5.4,3.1-7.5-1.3-1.1-2.2-1-5.8,.7-8.2,4-18.2,11.2-26.7,19.1-6.8,6.5-9.4,9.7-12.7,16.2-3.9,7.5-4.2,8.8-4.2,15.8s.4,8.4,2.9,12.8c4.7,8.1,13.8,14.8,28.1,20.7,4.4,1.9,21.3,6.2,30.5,7.9,9.4,1.6,60,1.6,71.5-.1,32.3-4.7,54-9.1,63.5-13,1.1-.5,5.3-1.6,9.3-2.6l7.4-1.7,5,2.7,5,2.7,10.7-1.6c11.4-1.9,13.3-2.3,25.6-5.6,4.4-1.2,10-2.6,12.5-3s7.9-1.8,12-2.9c4.1-1.2,10.9-3.1,15-4.2s14.1-4.3,22.3-7c13.1-4.4,16.5-5.6,24.2-8.5,5.1-1.9,4.9-3.5,4.2,29-.6,29.1-.5,30.2,1.3,31.4,3.2,2,6.5,1.4,18.7-3.3,7.8-3,12.8-5.5,15.1-7.7,4.1-4,12.8-21.5,22.2-44.8,1.2-3,3.5-8.7,5-12.5,1.6-3.9,3.9-9.9,5.1-13.5s2.6-7,3.3-7.6c.6-.6,4-2.1,7.6-3.4,14.1-5.1,34.9-14.5,51-23.2,39.6-21.3,67.8-48,83.7-79.3,10.7-20.9,17.3-49.6,17.3-75s-8.4-63.5-18.5-83.4c-3.2-6.3-3.1-7.4,.5-22.3q3.1-13,5.6-33.3c3.2-26.3,1.5-56.7-3.9-68.5-5.1-11.2-9.9-15.7-19.8-18.6-13-3.9-34.7,5.5-55.9,24.1-7.1,6.2-25.1,24.7-30,30.9-5,6.3-4.4,6.2-17.5,3.1-18-4.1-49.7-6-62.2-3.6-2.6,.5-9.3,1.7-14.8,2.6-5.5,1-11.6,2.4-13.5,3.2l-3.5,1.5-8-8.9c-27.6-30.4-48.9-46.8-72-55.3-1.1-.4-3.1-1.2-4.5-1.7-1.4-.6-7.2-1.1-13-1.2-9.4-.1-11,.2-15.2,2.4Z"/>
  <path class="cls-1" d="M140.97,171.02c-10.1,5.7-13.6,17-8.5,27,5.1,9.7,17.3,12.9,26.6,7,6.6-4.2,9.3-9,9.2-16.6,0-4.9-.6-7-2.7-10.4-1.5-2.3-3.5-4.5-4.4-4.8-.9-.4-1.9-.9-2.2-1.2-3.1-3.5-12.6-4-18-1Z"/>
  <path class="cls-1" d="M264.97,171.32c-2.7,1.3-5.7,4-7.5,6.7-2.6,3.8-3,5.3-3,10.9,0,5.3,.4,7.1,2.5,10,6.6,9.3,16.4,11.7,25.9,6.4,13.7-7.7,13-27.4-1.3-34-6.4-3-10.8-3-16.6,0Z"/>
  <path class="cls-1" d="M397.27,171.92c-6.6,3.8-9.3,8.6-9.3,16.5,0,11.7,7.7,19.5,19.3,19.5,6.3,0,13.6-4,16.2-8.9,4.4-8.5,2.7-19.3-3.9-24.5-8.3-6.6-14.2-7.3-22.3-2.6Z"/>
  <path class="cls-1" d="M529.47,170.22c-5.6,2.2-7.6,3.8-10.6,8.5-4.2,6.6-4.1,13.2,.4,19.8,4.2,6.4,9.6,9.4,16.7,9.4,4.7,0,6.2-.6,10.1-3.4,5.1-3.8,8.9-10.6,8.9-15.8,0-1.8-1.1-5.6-2.4-8.5-4.1-8.8-14.6-13.3-23.1-10Z"/>
  <path class="cls-1" d="M196.47,216.12c-11.2,2.8-20.9,10-22.1,16.6-1.3,7,.2,14.9,3.8,19.9,4.4,6.2,11.6,11.6,18.5,13.9,3.1,1.1,5.8,2.5,6.1,3.2,.8,2.1-1.6,8.6-4.3,11.8-1.4,1.6-2.5,3.2-2.5,3.6,0,.5-.7,.8-1.5,.8s-1.5,.4-1.5,1c0,.5-.7,1-1.5,1s-1.5,.4-1.5,.8c0,1.5-6.7,3.2-12.9,3.2-4.9,0-7.6-.7-12.5-3-7.5-3.6-9.7-5.8-13.4-13.1-2.6-5.2-2.9-5.4-7.1-5.7-8.5-.6-11.5,6.2-6.9,15.7,2.5,5.2,12.8,16.1,15.2,16.1,.9,0,1.6,.3,1.6,.8,0,.8,3.4,2.4,10.5,4.8,6.6,2.2,21.4,2.2,27-.1,8.6-3.5,11-4.9,15.5-9.1l4.7-4.4,2.9,3.3c4.3,4.5,6.1,5.9,12.7,9,5.2,2.4,6.9,2.7,16.5,2.7,11.2,0,15.3-1,24-5.5,9.6-5,17.8-15.6,18.9-24.3,.9-7.8-8.5-12.5-13.5-6.8-1.1,1.4-2.8,3.8-3.6,5.4-2,3.9-7.7,9.2-12.9,11.9-6.4,3.5-16.5,3.2-24-.6-6.2-3.2-8.6-5.5-11.8-11.4-3.3-6.2-2.4-8.6,4.1-10.9,11.1-4.1,20.4-13.6,23.5-24,3.4-11.5-4.6-21.8-20.6-26.7-4.3-1.3-25.8-1.2-31.4,.1Z"/>
  <path class="cls-1" d="M460.47,216.12c-8.5,2.9-12,6.8-11.9,13.2,.1,6.9,4.2,12,12.5,15.8,4.9,2.1,4.9,2.2,4.8,6.7-.1,6.1-.8,8.1-4.4,12.5-7.9,9.8-20.8,10-27.2,.4-2.1-3.1-3.7-4.4-5.7-4.6-10.2-1.2-12.5,8.1-4.2,17.5,8.7,9.9,22.4,12.9,34.8,7.6,3.5-1.5,6.5-3.1,6.6-3.5,.2-.4,.8-.8,1.4-.8s2.1-1.2,3.3-2.6l2.2-2.6,2.6,2.6c1.4,1.4,3.1,2.6,3.7,2.6,.5,0,1,.4,1,.8,0,.8,2.9,2.2,10.7,5.2,4.6,1.8,14.8,.8,20.8-1.9,15.8-7.2,21.2-25.1,7.6-25.1-3.5,0-4.3,.5-6.8,4.2-1.6,2.4-4.4,5.1-6.3,6-3.8,1.9-10,2.3-12.8,.9-.9-.5-2.9-1.5-4.5-2.2-1.5-.7-4.1-3.3-5.7-5.8-2.5-3.7-3-5.4-3-10.7v-6.3l4.3-1.9c8.2-3.6,13.3-12.8,10.8-19.4-1.2-3.1-6.2-6.9-11.2-8.6-4.2-1.4-19.1-1.4-23.4,0Z"/>
  <path class="cls-1" d="M436.37,543.02c-6.5,5.5-17.4,14.6-24.1,20.2l-12.1,10.2-.1,92.2-.1,92.3h283v-225h-234.7l-11.9,10.1Zm26.6,60.9v7h-17v-14h17v7Zm20,0v7h-18v-14h18v7Zm33,0v7h-17v-14h17v7Zm20,0v7h-18v-14h18v7Zm34,0v7h-18v-14h18v7Zm33,0v7h-18v-14h18v7Zm60,0v7h-18v-14h18v7Zm-200,16v7h-17v-14h17v7Zm53,0v7h-17v-14h17v7Zm54,0v7h-18v-14h18v7Zm33,0v7h-18v-14h18v7Zm20,0v7h-18v-14h18v7Zm21,0v7h-17v-14h17v7Zm19,0v7h-18v-14h18v7Zm-200,16.5v7.5h-17v-15h17v7.5Zm53,0v7.5h-17v-15h17v7.5Zm53.8,.2l.3,7.3h-18.1v-6.8c0-3.8,.3-7.2,.7-7.6s4.3-.5,8.8-.4l8,.3,.3,7.2Zm33.2-.2v7.5h-18v-6.8c0-3.8,.3-7.2,.7-7.5,.3-.4,4.4-.7,9-.7h8.3v7.5Zm30,0v7.5h-17v-6.8c0-3.8,.3-7.2,.7-7.5,.3-.4,4.2-.7,8.5-.7h7.8v7.5Zm29.8,.2l.3,7.3h-18.1v-6.8c0-3.8,.3-7.2,.7-7.6s4.3-.5,8.8-.4l8,.3,.3,7.2Zm-199.8,15.8v7.5h-17v-15h17v7.5Zm53,0v7.5h-17v-15h17v7.5Zm53.8,.2l.3,7.3h-18.1v-15.1l8.8,.3,8.7,.3,.3,7.2Zm33.2-.2v7.5h-18v-15h18v7.5Zm30.1-6.5c.1,.5,.1,2.1,.1,3.5s0,4.3-.1,6.5l-.1,4h-17v-15h8.5c4.9,0,8.5,.4,8.6,1Zm29.7,6.7l.3,7.3h-18.1v-6.8c0-3.8,.3-7.2,.7-7.6s4.3-.5,8.8-.4l8,.3,.3,7.2Zm-199.8,16.8v7.5h-17v-15h17v7.5Zm19.8,.2l.3,7.3h-18.1v-15.1l8.8,.3,8.7,.3,.3,7.2Zm33.2-.2v7.5h-17v-15h17v7.5Zm20,0v7.5h-18v-6.8c0-3.8,.3-7.2,.7-7.5,.3-.4,4.4-.7,9-.7h8.3v7.5Zm33.8,.2l.3,7.3h-18.1v-15.1l8.8,.3,8.7,.3,.3,7.2Zm33.2-.2v7.5h-18v-15h18v7.5Zm30.2-5.3c.2,1.3,.1,4.7,0,7.5l-.4,5.3h-16.8v-15h8.4c8,0,8.5,.1,8.8,2.2Zm29.8,5.3v7.5h-18v-6.8c0-3.8,.3-7.2,.7-7.5,.3-.4,4.4-.7,9-.7h8.3v7.5Zm-200,16v7.5h-17v-15h17v7.5Zm73,0v7.5h-18v-6.8c0-3.8,.3-7.2,.7-7.5,.3-.4,4.4-.7,9-.7h8.3v7.5Zm33.8,.2l.3,7.3h-18.1v-15.1l8.8,.3,8.7,.3,.3,7.2Zm33.2-.2v7.5h-18v-15h18v7.5Zm60,0v7.5h-18v-6.8c0-3.8,.3-7.2,.7-7.5,.3-.4,4.4-.7,9-.7h8.3v7.5Zm-200,16.5v8h-17v-16h17v8Zm73,0v8.1l-8.7-.3-8.8-.3-.3-6.4c-.2-3.5-.1-7,.2-7.7,.4-1,2.8-1.4,9.1-1.4h8.5v8Zm33.5,0v7.5l-8.7,.3-8.8,.3v-16.2l8.8,.3,8.7,.3v7.5Zm33.5,0v8h-18v-16h18v8Zm60,0v8h-18v-7.3c0-4.1,.3-7.7,.7-8,.3-.4,4.4-.7,9-.7h8.3v8Zm-200,16.5v7.5h-17v-15h17v7.5Zm73,0v7.6l-8.7-.3-8.8-.3-.3-5.9c-.5-8.7-.5-8.6,9.3-8.6h8.5v7.5Zm33.5,0v7l-8.7,.3-8.8,.3v-15.2l8.8,.3,8.7,.3v7Zm33.5,0v7.5h-18v-15h18v7.5Zm60,0v7.5h-18v-6.8c0-3.8,.3-7.2,.7-7.5,.3-.4,4.4-.7,9-.7h8.3v7.5Zm-200,16v7.5h-17v-15h17v7.5Zm19.5,0v7l-8.7,.3-8.8,.3v-15.2l8.8,.3,8.7,.3v7Zm33.5,0v7.5h-17v-15h17v7.5Zm20,0v7.6l-8.7-.3-8.8-.3-.3-5.9c-.5-8.7-.5-8.6,9.3-8.6h8.5v7.5Zm33.5,0v7l-8.7,.3-8.8,.3v-15.2l8.8,.3,8.7,.3v7Zm33.5,0v7.5h-18v-15h18v7.5Zm60,0v7.5h-18v-15h18v7.5Z"/>
  <path class="cls-1" d="M202.47,535.22c-9.8,3.9-15.2,9.7-17.6,18.9-1.5,5.4-.4,9.9,4.3,18.6l2.9,5.3-6.9,6.8c-9.1,8.8-10.7,12.4-10.6,22.6,.1,5,.7,9.3,1.7,11.5,3.3,7.2,11.6,14.1,20.2,16.7,7.5,2.3,22,1.3,27-1.8,8.8-5.6,15.5-7.7,15.5-4.8,0,.5,1.9,2.3,4.2,3.9,4.1,3,4.4,3.1,14.2,2.8,8.5-.3,10.1-.6,10.1-1.9,0-1.4-6.5-9.4-14.7-18-3.4-3.5-3.5-5.2-.5-10.4,3.3-5.8,5.9-14.7,5.5-19.2l-.3-3.8h-14l-1.2,4c-.6,2.2-1.7,6.1-2.4,8.7-.8,2.7-1.8,4.8-2.4,4.8s-3.1-2.3-5.6-5.1c-2.4-2.8-5.6-6.5-7.1-8.3-3.2-3.5-3.5-4.6-1.3-4.6,.8,0,1.5-.4,1.5-1,0-.5,1.8-2.2,4.1-3.7,2.2-1.5,5.8-5.1,8-8.1,3.5-4.9,3.9-6.2,3.9-11.3,0-6.7-1-9.7-4.7-14.5-4.7-6-11.3-8.7-21.8-9-5.2-.2-10.3,.2-12,.9Zm18,17.2c4.6,4.5,2.2,12.8-4.7,16.8-3.9,2.2-4.5,2.2-7.5-1.1-4.8-5.1-5.7-11.2-2.2-15.6,1.7-2.2,2.8-2.6,7-2.6s5.5,.5,7.4,2.5Zm-4.8,50.1c2.3,2.7,5.3,6.2,6.7,7.8,2.9,3.5,2.7,4-2.4,6.6-4.8,2.5-15.7,2.7-20,.5-1.5-.8-3.8-3-4.9-4.8-3.8-6.2-2.4-11.5,4.8-18.5l4.5-4.3,3.6,4c2,2.1,5.4,6.1,7.7,8.7Z"/>
  <path class="cls-1" d="M283.77,534.62l-6.8,.4v101l10.3-.3,10.2-.3v-32c0-17.7,.4-32.1,.9-32.3,.7-.3,6.7,12.4,10.5,22.3,.4,1.1,1.7,4,2.8,6.5s3.8,8.9,5.9,14.2l3.9,9.8h16.2l4.7-11.3c2.6-6.1,6.8-16.2,9.3-22.2,6.6-15.9,8.7-20.5,9.6-20.5,.4,0,.7,14.9,.7,33v33.1l10.3-.3,10.2-.3,.3-47.5c.1-26.1,0-48.9-.3-50.5l-.5-3-13,.1c-7.2,0-13.4,.5-13.9,1s-2.2,4-3.9,7.9c-4.5,10.7-18.3,43.7-19.3,46.2-1.3,3.4-2.2,2.8-4.6-3-2.8-6.7-10-23.3-11.8-27.2-.7-1.7-2.2-5.3-3.3-8-1.1-2.8-3.2-7.6-4.7-10.8l-2.6-5.7h-5.9c-3.2,0-6.4-.1-7.2-.3-.7-.2-4.3-.1-8,0Z"/>
  <path class="cls-1" d="M87.57,536.12c-1.6,5.4-4.3,15.3-7.1,26.3-1.9,7.1-4.6,17.3-6.1,22.5-1.4,5.2-3.3,12-4.1,15-1,3.7-1.7,5-2.2,4-.5-.8-2.5-7.8-4.6-15.5s-5.8-20.9-8.2-29.3c-2.3-8.5-4.3-16-4.3-16.8,0-.7-.5-2.5-1.2-3.9-1.1-2.4-1.4-2.5-11.5-2.5-6.8,0-10.3,.4-10.3,1.1,0,.6,1.1,5,2.5,9.8,1.4,4.7,3,10.2,3.5,12.1,1.8,6.4,5.7,20.3,9.9,34.5,2.2,7.7,4.5,15.8,5,18s1.9,7.1,3.1,11c1.2,3.8,2.4,8.2,2.7,9.7,.8,4.4,2.3,4.9,13.4,4.6l10.3-.3,2.2-7c3.3-10.3,10.4-34.7,10.9-37,1.1-5.3,6.1-21.5,6.6-21.5,.3,0,1.5,3,2.7,6.7,5.9,18.9,10.3,33.4,11.6,38.3,2.1,7.9,5.7,18.3,6.9,19.7,.6,.9,4.2,1.3,11.3,1.3h10.3l2-6.8c1.1-3.7,2.8-9.6,3.6-13.2,.9-3.6,2.9-10.8,4.5-16s3.8-13.1,4.9-17.5c1-4.4,3-11.8,4.4-16.5s3.7-13.2,5.2-19c1.6-5.8,3-11.1,3.3-11.8,.3-1-1.8-1.2-9.9-1l-10.3,.3-2.7,9.5c-1.4,5.2-4.5,16.7-6.8,25.5-3.5,13.2-6,22.3-8.7,32.2-.2,.7-.8,1.3-1.4,1.3-1.2,0-1,.7-4.6-13-1.5-5.8-4.2-15.9-6-22.5-1.7-6.6-4.4-16.6-5.9-22.2-3.2-11.7-2.7-11.3-16.7-11.3-5.4,0-8,.4-8.2,1.2Z"/>
  <path class="cls-1" d="M211.67,659.52c-.4,.4-.7,2.7-.7,5.1v4.3h-5.4c-3.1,0-5.8,.5-6.4,1.2s-.8,3.4-.5,6l.6,4.8h11.7v9h5.4c5.8,0,6.6-.7,6.6-6.1v-2.9h18v9.1l5.3-.3,5.2-.3,.3-4.2,.3-4.2,6.2-.3,6.2-.3,.3-5.1c.3-5.8-.4-6.4-8.5-6.4h-4.2l-.3-4.8-.3-4.7h-10l-.3,4.7-.3,4.8h-9c-6.4,0-8.9-.3-9-1.3,0-.6-.1-2.8-.2-4.7q-.2-3.5-5.2-3.8c-2.8-.2-5.4,0-5.8,.4Z"/>
  <path class="cls-1" d="M286.07,663.42c-1.7,2-3.1,3.9-3.1,4.3s3.8,4.5,8.5,9.1l8.6,8.3,3.4-3.8c4-4.3,4.3-5.7,1.8-8.2-3.1-3.1-15-13.2-15.6-13.2-.3,0-1.9,1.6-3.6,3.5Z"/>
  <path class="cls-1" d="M53.17,665.42c-1.8,2.5-3.2,4.9-3.2,5.4,0,.4,2,1.8,4.5,3.1s6.3,3.8,8.4,5.7c2.2,1.8,4.4,3.3,4.9,3.3,1.4,0,6-6.3,6.7-9.1,.5-2.1-.3-3-6.7-7-10.6-6.7-10.8-6.7-14.6-1.4Z"/>
  <path class="cls-1" d="M313.17,667.12l.3,5.3,4,.2c2.2,.1,5.5,.2,7.3,.2,2.1,.1,3.2,.6,3.2,1.6,0,.8-.5,1.5-1.2,1.5s.2,1.5,2,3.3,3.2,3.6,3.2,4-4,.7-8.9,.7c-7.5,0-9,.3-9.5,1.7-.4,1-.6,13.6-.5,28l.2,26.3h12.7v-16h14v6.4c0,9.2,.3,9.6,6.6,9.6h5.4v-16.1l7.8,.3c7.1,.3,7.7,.5,8,2.5,.3,2.1,0,2.3-4.7,2.3-2.7,0-5.3,.5-5.6,1.1-.4,.6-.4,3,0,5.5l.6,4.4h8.7c8.3-.1,8.8-.2,10.7-2.8,1.8-2.5,2-4.3,2-23.5,0-11.5-.2-22.9-.4-25.3l-.3-4.4h-7.9c-4.3,0-7.9-.4-7.9-.9s1.7-2,3.8-3.2c2-1.3,3.9-2.7,4-3.1,.2-.4,.8-.8,1.4-.8,1.3,0,3.6-2.4,3.8-4.1,.1-.8,.2-3.3,.1-5.7l-.1-4.2h-63.1l.3,5.2Zm46.3,7.1c-.5,1.1-11.7,8.7-12.9,8.7-.6,0-9.6-9-9.6-9.6,0-.2,5.2-.4,11.5-.4,8.8,0,11.3,.3,11,1.3Zm8.5,22.3c0,2.3-.2,2.4-8.6,2.4s-8.5-.1-8.2-2.3c.2-1.8,1.1-2.3,4.3-2.7,2.2-.3,5.9-.3,8.3-.1,3.7,.3,4.2,.6,4.2,2.7Zm-28-1.7c0,.5,.3,1.6,.6,2.5,.5,1.4-.5,1.6-7.5,1.6-8,0-8.1,0-8.1-2.5s.2-2.5,7.5-2.5c4.1,0,7.5,.4,7.5,.9Zm-.2,16.8c-.3,2.7-.5,2.8-7,3.1l-6.8,.3v-6.1h14.1l-.3,2.7Zm28,0c-.3,2.8-.4,2.8-8,3.1-6.9,.3-7.7,.1-8.3-1.8-1.1-3.4,.3-4,8.6-4h8l-.3,2.7Z"/>
  <path class="cls-1" d="M82.77,664.62c-1.5,.4-1.8,1.6-1.8,6.3v5.9l11.3,.3,11.2,.3,.6,11.5c.3,6.3,.3,12.1,.1,12.7-.3,1-3.6,1.3-11.9,1.3h-11.4l.3,6,.3,6h22.6l-.3,14.2-.3,14.3-13.6,.3c-15.4,.3-15.1,.1-14.2,8.4l.5,4.3h35.2l35.1-.1,.3-5.6c.3-5.2,.1-5.6-2.1-6.2-1.4-.3-7.5-.4-13.7-.1-7.6,.3-11.7,.1-12.6-.6-1.1-.9-1.4-4.6-1.4-15v-13.9h11.9c13.3,0,13.1,.1,13.1-7.6v-4.4h-24v-26h24.1l-.3-6.3-.3-6.2-28.5-.1c-15.7-.1-29.3,0-30.2,.3Z"/>
  <path class="cls-1" d="M162.77,704.12c-.2,20.5-.2,38.5,0,40l.3,2.8h13.9c7.6,0,14.5-.3,15.4-.6,1.4-.5,1.6-5,1.6-40v-39.4h-31l-.2,37.2Zm21.2,1.7c0,19.3-.3,27.2-1.2,27.7-.6,.4-2.6,.9-4.5,1.1l-3.3,.3v-56h9v26.9Z"/>
  <path class="cls-1" d="M49.77,691.82c-1.6,2.2-2.8,4.6-2.8,5.4,0,.9,2.1,2.9,4.8,4.5,2.6,1.6,5.8,3.9,7.1,5.1,2.3,2,6.8,3.8,7.5,3,.1-.2,1.4-2.5,2.8-5.1,2.4-4.3,2.5-4.8,.9-6.1-3.7-3.3-15.1-10.7-16.3-10.7-.7,0-2.5,1.8-4,3.9Z"/>
  <path class="cls-1" d="M200.67,695.62c-.9,.9-.9,58.6,.1,59.8,.4,.6,11.6,.9,31,.7l30.2-.3v-3.2c.1-5.3,.1-53,.1-55.5l-.1-2.2h-30.3c-16.7,0-30.7,.3-31,.7Zm25.4,11.5c.5,5,.5,10.5,.1,11.5-.3,.9-2.6,1.3-6.8,1.3s-6.4-.4-6.5-1.3c-.2-2.9,.3-11.2,.7-11.9,.9-1.4,12.4-.9,12.5,.4Zm23.9,5.8v7h-13v-6.3c0-3.5,.3-6.7,.7-7,.3-.4,3.3-.7,6.5-.7h5.8v7Zm-23.8,22.7c.6,9.3,.6,9.4-7,9.1l-6.7-.3-.3-4.5c-.6-8.3,0-9,7.2-9h6.4l.4,4.7Zm24.3,2.3v6.5l-6.7,.3-6.8,.3v-14.2l6.8,.3,6.7,.3v6.5Z"/>
  <path class="cls-1" d="M281.97,702.82v6l5.3,.3,5.2,.3,.3,11.5,.3,11.5-3.5,3.8c-1.8,2-3.7,3.7-4.1,3.7s-2,.9-3.6,2c-2.5,1.8-2.7,2.4-1.8,4.8,2.2,5.9,4.2,9.2,5.4,9.2,.7,0,3.8-2.5,7-5.5,6-5.6,7.9-6.5,8.8-4.1,.7,1.8,8.6,7.1,12.3,8.1,1.6,.5,17.8,.9,35.9,.9l33,.1,.5-5.5,.5-5.5h-31c-26.5,0-31.8-.2-36.6-1.7-7-2.2-9.8-4.7-11-9.5-.5-2.1-.9-11.1-.9-20.1v-16.2h-22v5.9Z"/>
  <path class="cls-1" d="M64.37,722.62c-4.1,7.1-12.3,19.2-14.5,21.4-1.1,1.1-2.2,3.2-2.5,4.7-.4,2.4,.1,3.1,4.2,5.6,3.5,2.2,5,2.7,6.2,1.9,3.4-2.1,20.2-28.3,20.2-31.4,0-1.7-2.5-3.9-6.3-5.7-4.1-1.8-4.4-1.6-7.3,3.5Z"/>
</svg>